<svg id="Layer_1" data-name="Layer 1" xmlns="http://www.w3.org/2000/svg" viewBox="0 0 792 612"><defs><style>.cls-1,.cls-2{fill:#231f20;}.cls-1,.cls-4{stroke:#231f20;stroke-miterlimit:10;}.cls-3{fill:#fff;}.cls-4{fill:none;}</style></defs><path class="cls-1" d="M368.62,179.23C368,268.44,362,353.91,311,407.77l23.51,5c41.54-96.31,34.43-120.28,40.61-164,.83-19.25,14.22-23.89,42.18-11.57"/><path class="cls-1" d="M334.55,412.78c-25,31.32-53.83,53-88.94,58.59,30.93-24.07,55.26-46.06,65.43-63.6"/><polygon class="cls-1" points="263.03 267.1 272.84 273.77 267.52 282.31 251.9 278.43 263.03 267.1"/><path class="cls-2" d="M559.94,146.11c7.78,40-16.18,64.08-49.15,68.26,21.25-9,33.57-25.58,35.95-42.4,2.07-2.37,4.11-4.75,6-7.24a17.19,17.19,0,0,0,2.65-4.35,18.46,18.46,0,0,0,.74-7.45,25.66,25.66,0,0,0-1.14-7.54,17.92,17.92,0,0,0-2.49-4.59l2.89-2A71.47,71.47,0,0,1,559.94,146.11Z"/><path class="cls-2" d="M511.3,117.49h-2.05c-.17,0-.45.11-.38.28a4.56,4.56,0,0,0,2.87.19A.63.63,0,0,0,511.3,117.49ZM492.62,267.3,487,269.44l-2.27.86h0c-45.7-23.21-93-40.21-113.28-69.45-11.47-40.29,11.32-71.65,82.76-90.27,42.54-5,80.09-1.85,101.26,28.26l-2.89,2a17.92,17.92,0,0,1,2.49,4.59,25.66,25.66,0,0,1,1.14,7.54,18.46,18.46,0,0,1-.74,7.45,17.19,17.19,0,0,1-2.65,4.35c-1.92,2.49-4,4.87-6,7.24,3.49-24.21-13.53-49-54.05-52.67Q373.62,133,398.06,194.51c16.12,16.32,36.7,28.5,60.31,37.84,21.61,8.08,40.14,17,53.88,27.08-2.12,3.21-5.64,5.21-9,7l-1.55.81-.23-.44a8.61,8.61,0,0,1-3.68.77A29.37,29.37,0,0,1,492.62,267.3Zm-63.84-44.36a36.1,36.1,0,0,0-5.34-3,134.07,134.07,0,0,1-26.65-17.39,32.06,32.06,0,0,1-6.25-6.5,24.52,24.52,0,0,1-3.67-11.36,72.18,72.18,0,0,1,.27-12l-.42-.07a99,99,0,0,0-1.37,22.93c3.26,4.35,8.39,7.57,12.25,11.6,3,3.09,5.26,6.77,7.91,10.15a60.08,60.08,0,0,0,36.3,21.89l.14-.73c.24.07.49.12.73.17,1.95.46,3.86,1,5.73,1.63-4.34-2.84-8.64-5.78-12.86-8.83l.16-.23a30.46,30.46,0,0,0,7.41,3.07c1.31.3,2.66.4,4,.73a27,27,0,0,1,4.82,1.91c.39.18.76.36,1.14.51l-.42.18a8.43,8.43,0,0,0,1.84.47c-.47-.21-.95-.42-1.42-.65,1.16-.45,2.31-.93,3.47-1.4q-13.51-5.76-27.06-11.5l-1.14-.49Z"/><path class="cls-3" d="M530.46,277.62c6.07,9,8.73,18.85,7.19,29.82-.41,2.47-.88,4.87-1.4,7.22C538.38,297.55,535.65,286.16,530.46,277.62Z"/><path class="cls-2" d="M530.46,277.62c5.19,8.54,7.92,19.93,5.79,37-5.72,25.91-18,44.26-33.66,58.72,15.95-57.53,8.64-75.51-2.08-87.66a63.05,63.05,0,0,0-12-13.48c.91,0,1.78-.05,2.66-.08,6.1.73,11.74.17,16.28-3.51a10.79,10.79,0,0,0,6-8.31c.38.28.77.58,1.14.88A72.73,72.73,0,0,1,530.46,277.62Z"/><path class="cls-2" d="M512.25,259.43l1.23.91a21.78,21.78,0,0,1-6,8.31c-3.94,2.17-9.58,3.19-16.28,3.51-1.37-.18-2.75-.41-4.17-.69q-1.15-.6-2.31-1.17l2.27-.86,0,.09a13.2,13.2,0,0,0,8.38.29,30,30,0,0,0,6.27-2.57l1.55-.81C506.61,264.64,510.13,262.64,512.25,259.43Z"/><path class="cls-2" d="M502.59,373.38c15.65-14.46,27.94-32.81,33.66-58.72-3.7,29.83-22.2,77-68.36,156.73C484.73,429.75,495.79,398,502.59,373.38Z"/><path class="cls-3" d="M511.3,117.49a.63.63,0,0,1,.44.47,4.56,4.56,0,0,1-2.87-.19c-.07-.17.21-.28.38-.28Z"/><path class="cls-3" d="M513.48,260.34a10.79,10.79,0,0,1-6,8.31A21.78,21.78,0,0,0,513.48,260.34Z"/><path class="cls-3" d="M491.18,272.16c6.7-.32,12.34-1.34,16.28-3.51C502.92,272.33,497.28,272.89,491.18,272.16Z"/><path class="cls-3" d="M500.51,285.72c10.72,12.15,18,30.13,2.08,87.66-10.66,9.87-22.89,17.93-35.68,25.34q-66.36,32.79-142.52,21.86c-54.78-8.62-84.8-35.42-90.57-80,2.82-52.87,26.82-84.94,67.41-100.72-48,47.38-77.17,113.42-11.13,161.68,55.09,18.51,108,20.8,157.3-4.54C501.93,364.35,522,318.73,500.51,285.72Z"/><path class="cls-2" d="M501.43,266.81l.23.44a30,30,0,0,1-6.27,2.57,13.2,13.2,0,0,1-8.38-.29l0-.09,5.65-2.14a29.37,29.37,0,0,0,5.13.28A8.61,8.61,0,0,0,501.43,266.81Z"/><path class="cls-3" d="M491.18,272.16c-.88,0-1.75.07-2.66.08-.51-.26-1-.52-1.51-.77C488.43,271.75,489.81,272,491.18,272.16Z"/><path class="cls-2" d="M456.51,236c-1.16.47-2.31.95-3.47,1.4-.38-.15-.75-.33-1.14-.51a27,27,0,0,0-4.82-1.91c-1.3-.33-2.65-.43-4-.73a30.46,30.46,0,0,1-7.41-3.07l-.16.23q-1.79-1.24-3.54-2.54a64.67,64.67,0,0,0-5.35-3.65c-3.52-2-7.75-3.54-9.83-7l.09,0A65.73,65.73,0,0,0,428.31,224l1.14.49Q443,230.26,456.51,236Z"/><path class="cls-3" d="M453,237.43c.47.23.95.44,1.42.65a8.43,8.43,0,0,1-1.84-.47Z"/><path class="cls-2" d="M416.83,218.26c2.08,3.45,6.31,5,9.83,7A64.67,64.67,0,0,1,432,228.9q1.75,1.29,3.54,2.54c4.22,3.05,8.52,6,12.86,8.83-1.87-.61-3.78-1.17-5.73-1.63-.24,0-.49-.1-.73-.17l-.14.73a60.08,60.08,0,0,1-36.3-21.89c-2.65-3.38-4.93-7.06-7.91-10.15-3.86-4-9-7.25-12.25-11.6a99,99,0,0,1,1.37-22.93l.42.07a72.18,72.18,0,0,0-.27,12,24.52,24.52,0,0,0,3.67,11.36,32.06,32.06,0,0,0,6.25,6.5A134.07,134.07,0,0,0,423.44,220a36.1,36.1,0,0,1,5.34,3l-.47,1.1a65.73,65.73,0,0,1-11.39-5.83Z"/><path class="cls-4" d="M484.68,270.3c-45.7-23.21-93-40.21-113.28-69.45-11.47-40.29,11.32-71.65,82.76-90.27,42.54-5,80.09-1.85,101.26,28.26a71.47,71.47,0,0,1,4.52,7.27c7.78,40-16.18,64.08-49.15,68.26,21.25-9,33.57-25.58,35.95-42.4,3.49-24.21-13.53-49-54.05-52.67Q373.62,133,398.06,194.51c16.12,16.32,36.7,28.5,60.31,37.84,21.61,8.08,40.14,17,53.88,27.08l1.23.91"/><path class="cls-4" d="M514.62,261.22a72.73,72.73,0,0,1,15.84,16.4c6.07,9,8.73,18.85,7.19,29.82-.41,2.47-.88,4.87-1.4,7.22-5.72,25.91-18,44.26-33.66,58.72-10.66,9.87-22.89,17.93-35.68,25.34q-66.36,32.79-142.52,21.86c-54.78-8.62-84.8-35.42-90.57-80,2.82-52.87,26.82-84.94,67.41-100.72-48,47.38-77.17,113.42-11.13,161.68,55.09,18.51,108,20.8,157.3-4.54,54.53-32.64,74.63-78.26,53.11-111.27a63.05,63.05,0,0,0-12-13.48c-.51-.26-1-.52-1.51-.77q-1.15-.6-2.31-1.17"/><polyline class="cls-4" points="484.68 270.3 484.7 270.3 486.98 269.44 492.62 267.3 493.07 267.13"/><path class="cls-4" d="M389.63,160.47c0,.09-.06.19-.09.28a101.62,101.62,0,0,0-4.19,34.81c0,.63,0,1.24.1,1.87"/><path class="cls-4" d="M382.68,190.41a15.89,15.89,0,0,0,2.67,5.15c3.26,4.35,8.39,7.57,12.25,11.6,3,3.09,5.26,6.77,7.91,10.15a60.08,60.08,0,0,0,36.3,21.89l.85.16"/><path class="cls-4" d="M494,262.83a21.05,21.05,0,0,1-6.45-2.4c-13.06-6.73-25.27-15.53-39.09-20.16-1.87-.61-3.78-1.17-5.73-1.63-.24,0-.49-.1-.73-.17a32.1,32.1,0,0,1-5.1-1.41,34.71,34.71,0,0,1-4.79-2.52"/><path class="cls-4" d="M500.75,258.83a128.88,128.88,0,0,1-17.81-8c-2-1.16-3.94-2.42-6-3.51a94,94,0,0,0-11.87-4.83q-5.39-2-10.64-4.37c-.47-.21-.95-.42-1.42-.65s-.75-.33-1.14-.51a27,27,0,0,0-4.82-1.91c-1.3-.33-2.65-.43-4-.73a30.46,30.46,0,0,1-7.41-3.07"/><path class="cls-4" d="M501.7,257.13l-22.09-11.25c-1.19-.59-2.38-1.21-3.63-1.7-1.45-.58-3-1-4.43-1.49a73,73,0,0,1-11.13-5.17"/><path class="cls-4" d="M459.89,237.28a9.59,9.59,0,0,1-5.43.8,8.43,8.43,0,0,1-1.84-.47l.42-.18c1.16-.45,2.31-.93,3.47-1.4q-13.51-5.76-27.06-11.5l-1.14-.49a65.73,65.73,0,0,1-11.39-5.83"/><path class="cls-4" d="M416.64,217.92c.07.13.12.23.19.34,2.08,3.45,6.31,5,9.83,7A64.67,64.67,0,0,1,432,228.9q1.75,1.29,3.54,2.54c4.22,3.05,8.52,6,12.86,8.83A414.49,414.49,0,0,0,489,263.93"/><path class="cls-4" d="M485.87,265.78c-2.84-2.65-7-3.09-10.64-4.49a40.19,40.19,0,0,1-5-2.47l-25.89-14.45"/><path class="cls-4" d="M451,248.55c-3.84-.32-7-3.18-10.62-4.37-1.37-.45-2.81-.68-4.14-1.19-2.61-1-4.75-3.14-7.49-3.66"/><path class="cls-4" d="M428.73,239.29a38.22,38.22,0,0,0-6.49-3.82c-2.61-1.12-5.5-1.7-7.73-3.45-1.4-1.11-2.47-2.65-4.08-3.4"/><path class="cls-4" d="M429.47,223.48l-.69-.54a36.1,36.1,0,0,0-5.34-3,134.07,134.07,0,0,1-26.65-17.39,32.06,32.06,0,0,1-6.25-6.5,24.52,24.52,0,0,1-3.67-11.36,72.18,72.18,0,0,1,.27-12"/><path class="cls-4" d="M415.74,214.37c-2.64-2.07-5.31-4.12-8-6.19-6.78-5.24-13.88-11-16.68-19.07-1.6-4.68-1.61-9.73-1.6-14.67q0-6.84,0-13.69c0-.95,0-1.88,0-2.82"/><path class="cls-4" d="M391.17,165.52c.19-6.3,3.68-12,7-17.27a30.65,30.65,0,0,1,3.35-4.57c3.38-3.56,8.38-5.3,11.54-9.06"/><path class="cls-4" d="M398.41,150.69c7.32-9.92,17.93-16.93,28.88-22.6"/><path class="cls-4" d="M402.65,134.9A66,66,0,0,1,415,128.67c1.61-.63,3.26-1.19,4.86-1.89,2.82-1.24,5.45-2.94,8.37-4a42.52,42.52,0,0,1,6.66-1.6q7.71-1.4,15.43-2.77a.1.1,0,0,1,.07,0"/><path class="cls-4" d="M421.11,132.81a82,82,0,0,1,9.86-6.1c5.86-2.89,12.38-4.33,18.06-7.55l1.26-.76a22.3,22.3,0,0,1,2.4-1.29c3.4-1.55,7.24-1.64,11-1.71"/><path class="cls-4" d="M439.35,119.65a41,41,0,0,1,8.66-3.88,42.09,42.09,0,0,1,4.63-.91,87,87,0,0,1,11-1.21,27.11,27.11,0,0,0,7.21-.56"/><path class="cls-4" d="M428.62,129.46c2.41-.19,4.37-1.86,6.44-3.05a35.94,35.94,0,0,1,9.39-3.26l12.46-3.05a148.93,148.93,0,0,1,18.55-3.73c4.31-.49,8.66-.61,13-.72"/><path class="cls-4" d="M461.26,119.86a7.65,7.65,0,0,1,3.19-1.51,23.41,23.41,0,0,1,3.84-.32,23.7,23.7,0,0,0,6.24-1.15"/><path class="cls-4" d="M472.41,113.13c9.48.4,19.12-2.19,28.43-.27"/><path class="cls-4" d="M492,114.21c8.12,1.05,16.22,2.11,24.3,3.37"/><path class="cls-4" d="M512.35,115.74c-.45-.11-.91-.18-1.36-.27a28.44,28.44,0,0,1-5-1.56"/><path class="cls-4" d="M511.3,117.49c.91,0,1.83,0,2.74,0a3.77,3.77,0,0,1,1,.09,4.14,4.14,0,0,1,1.62,1.1,1.92,1.92,0,0,1,.19.23c0,.11,0,.2,0,.28s-.28.13-.44.11a9.82,9.82,0,0,1-1.85-.54"/><path class="cls-4" d="M511.3,117.49a.63.63,0,0,1,.44.47,4.56,4.56,0,0,1-2.87-.19c-.07-.17.21-.28.38-.28Z"/><path class="cls-4" d="M504.71,116.6a16.92,16.92,0,0,1,6.28.75,1.41,1.41,0,0,1,.31.14"/><path class="cls-4" d="M514.25,118.61a20.82,20.82,0,0,1,2.61.28c3.89.69,7.57,2.47,11.15,4.23,1.87.91,3.73,1.84,5.61,2.75a14.17,14.17,0,0,1,3.66,2.31"/><path class="cls-4" d="M537.86,129.8c-2.84-1.34-5.49-3-8.22-4.51a74.17,74.17,0,0,0-12.87-5.5"/><path class="cls-4" d="M516.91,117a37.07,37.07,0,0,1,8.66,3.19"/><path class="cls-4" d="M532.46,123.49c1.44-.3,2.8.63,4,1.5l3.64,2.75"/><path class="cls-4" d="M540.38,127.74l2.16,1.63c1,.72,2,1.69,1.87,2.88"/><path class="cls-4" d="M540.42,132.46c5.11,3.36,9.64,8,11.6,13.83,1.63,4.85,1.35,10.13,1.05,15.25-1.49-7-.61-14.94-4.66-20.9"/><path class="cls-4" d="M548,135.68a53.55,53.55,0,0,1,4.52,5.12,17.92,17.92,0,0,1,2.49,4.59,25.66,25.66,0,0,1,1.14,7.54,18.46,18.46,0,0,1-.74,7.45,17.19,17.19,0,0,1-2.65,4.35c-1.92,2.49-4,4.87-6,7.24-.26.31-.54.61-.8.93"/><path class="cls-4" d="M551.86,162.4,550.39,166"/><path class="cls-4" d="M487,269.53a13.2,13.2,0,0,0,8.38.29,30,30,0,0,0,6.27-2.57l1.55-.81c3.4-1.8,6.92-3.8,9-7l.32-.49"/><path class="cls-4" d="M513.48,260.34a21.78,21.78,0,0,1-6,8.31c-4.54,3.68-10.18,4.24-16.28,3.51-1.37-.18-2.75-.41-4.17-.69,4.17,5.31,9.13,9.29,13.5,14.25,10.72,12.15,18,30.13,2.08,87.66-6.8,24.57-17.86,56.37-34.7,98,46.16-79.68,64.66-126.9,68.36-156.73,2.13-17.11-.6-28.5-5.79-37-4.14-6.81-9.83-11.79-15.84-16.4C514.25,260.92,513.86,260.62,513.48,260.34Z"/><path class="cls-4" d="M491.71,267.14l.91.16a29.37,29.37,0,0,0,5.13.28,8.61,8.61,0,0,0,3.68-.77l.46-.28a19.16,19.16,0,0,0,1.61-1.35c.84-.7,1.84-1.21,2.72-1.86a4.3,4.3,0,0,0,1.84-2.63"/><path class="cls-4" d="M488.52,272.24c.91,0,1.78-.05,2.66-.08,6.7-.32,12.34-1.34,16.28-3.51a10.79,10.79,0,0,0,6-8.31"/><path class="cls-1" d="M405.84,128.78c-151.41,79.07-261.36,149-94.8,158.42-74.57-18.32-86.93-49.08,41.26-108,17.84-13.91,21.66,3,15.45,42"/></svg>